# Blender v2.82 (sub 7) OBJ File: 'sdf_source.blend'
# www.blender.org
mtllib link_storage_cabinet_body.001_hull_2.mtl
o link_storage_cabinet_body.001_hull_2
v -0.677216 -0.321063 -0.012407
v 0.676372 0.326315 0.075863
v 0.676372 0.296849 0.134724
v -0.677216 0.326315 0.075863
v -0.677216 -0.321063 0.134724
v 0.676372 -0.321063 -0.012407
v 0.676372 0.296849 -0.012407
v 0.676372 -0.321063 0.134724
v -0.677216 0.296849 -0.012407
v -0.677216 0.296849 0.134724
v 0.676372 0.326315 0.017030
v -0.677216 0.326315 0.017030
vt 0.000000 1.000000
vt 1.000000 1.000000
vt 0.000000 1.000000
vt 1.000000 0.954484
vt 1.000000 1.000000
vt 0.000000 0.000000
vt 0.000000 0.000000
vt 1.000000 0.000000
vt 1.000000 0.954484
vt 1.000000 0.000000
vt 0.000000 0.954484
vt 0.000000 0.954484
vn 0.0000 1.0000 0.0000
vn 0.0000 0.8942 0.4476
vn -1.0000 0.0000 0.0000
vn 1.0000 0.0000 0.0000
vn 0.0000 -1.0000 0.0000
vn 0.0000 0.0000 -1.0000
vn 0.0000 0.0000 1.0000
vn 0.0000 0.7068 -0.7075
usemtl None
s off
f 4/1/1 11/2/1 12/3/1
f 3/4/2 2/5/2 4/1/2
f 4/1/3 1/6/3 5/7/3
f 2/5/4 3/4/4 6/8/4
f 5/7/5 1/6/5 6/8/5
f 6/8/6 1/6/6 7/9/6
f 2/5/4 6/8/4 7/9/4
f 3/4/7 5/7/7 8/10/7
f 6/8/4 3/4/4 8/10/4
f 5/7/5 6/8/5 8/10/5
f 1/6/3 4/1/3 9/11/3
f 7/9/6 1/6/6 9/11/6
f 3/4/2 4/1/2 10/12/2
f 4/1/3 5/7/3 10/12/3
f 5/7/7 3/4/7 10/12/7
f 4/1/1 2/5/1 11/2/1
f 2/5/4 7/9/4 11/2/4
f 7/9/8 9/11/8 11/2/8
f 11/2/8 9/11/8 12/3/8
f 9/11/3 4/1/3 12/3/3
