# Blender v2.82 (sub 7) OBJ File: 'sdf_source.blend'
# www.blender.org
mtllib link_storage_cabinet_body.001_hull_4.mtl
o link_storage_cabinet_body.001_hull_4
v 0.470408 0.296889 1.753168
v 0.588087 -0.321063 0.134724
v 0.676372 -0.321063 0.134724
v 0.588087 -0.321063 1.753168
v 0.676372 0.296889 0.134724
v 0.676372 0.296889 1.753168
v 0.470408 0.238033 0.134724
v 0.676372 -0.321063 1.753168
v 0.470408 0.296889 0.134724
v 0.470408 0.238033 1.753168
vt 1.000000 1.000000
vt 0.000000 0.904756
vt 1.000000 0.904756
vt 0.000000 0.000000
vt 0.000000 0.000000
vt 1.000000 0.000000
vt 0.000000 1.000000
vt 1.000000 1.000000
vt 1.000000 0.000000
vt 0.000000 1.000000
vn -1.0000 0.0000 0.0000
vn 0.0000 -1.0000 0.0000
vn 0.0000 0.0000 -1.0000
vn 1.0000 0.0000 0.0000
vn 0.0000 0.0000 1.0000
vn 0.0000 1.0000 0.0000
vn -0.9786 -0.2060 0.0000
usemtl None
s off
f 1/1/1 7/2/1 10/3/1
f 2/4/2 3/5/2 4/6/2
f 3/5/3 2/4/3 5/7/3
f 3/5/4 5/7/4 6/8/4
f 1/1/5 4/6/5 6/8/5
f 5/7/6 1/1/6 6/8/6
f 2/4/7 4/6/7 7/2/7
f 5/7/3 2/4/3 7/2/3
f 4/6/2 3/5/2 8/9/2
f 3/5/4 6/8/4 8/9/4
f 6/8/5 4/6/5 8/9/5
f 1/1/6 5/7/6 9/10/6
f 7/2/1 1/1/1 9/10/1
f 5/7/3 7/2/3 9/10/3
f 4/6/5 1/1/5 10/3/5
f 7/2/7 4/6/7 10/3/7
