# Blender v2.82 (sub 7) OBJ File: 'sdf_source.blend'
# www.blender.org
mtllib link_storage_cabinet_door_R.001_hull_1.mtl
o link_storage_cabinet_door_R.001_hull_1
v -0.565733 -0.330298 0.170743
v 0.002209 -0.295348 1.804482
v -0.653099 -0.295348 1.804482
v 0.002209 -0.295348 0.065730
v -0.085221 -0.330298 1.682109
v -0.653099 -0.295348 0.065730
v -0.653099 -0.321557 1.804482
v 0.002209 -0.321557 0.065730
v -0.565733 -0.330298 1.682109
v -0.085221 -0.330298 0.170743
v 0.002209 -0.321557 1.804482
v -0.653099 -0.321557 0.065730
vt 0.000000 0.000000
vt 0.000000 1.000000
vt 0.000000 0.000000
vt 1.000000 0.000000
vt 1.000000 1.000000
vt 0.000000 1.000000
vt 1.000000 0.000000
vt 0.060396 0.133321
vt 0.929620 0.866582
vt 0.929620 0.133321
vt 0.060396 0.866582
vt 1.000000 1.000000
vn 0.0000 0.0000 -1.0000
vn 0.0000 1.0000 0.0000
vn 0.0000 0.0000 1.0000
vn 0.0000 -1.0000 0.0000
vn -0.0996 -0.9950 0.0000
vn 0.0000 -0.9975 0.0712
vn 0.0000 -0.9966 -0.0830
vn 0.0995 -0.9950 0.0000
usemtl None
s off
f 6/1/1 8/2/1 12/3/1
f 3/4/2 2/5/2 4/6/2
f 3/4/2 4/6/2 6/1/2
f 2/5/3 3/4/3 7/7/3
f 6/1/1 4/6/1 8/2/1
f 1/8/4 5/9/4 9/10/4
f 7/7/5 1/8/5 9/10/5
f 5/9/6 7/7/6 9/10/6
f 5/9/4 1/8/4 10/11/4
f 1/8/7 8/2/7 10/11/7
f 8/2/8 5/9/8 10/11/8
f 2/5/3 7/7/3 11/12/3
f 7/7/6 5/9/6 11/12/6
f 5/9/8 8/2/8 11/12/8
f 1/8/5 7/7/5 12/3/5
f 8/2/7 1/8/7 12/3/7
l 6 7
l 2 8
