# Blender v2.82 (sub 7) OBJ File: 'sdf_source.blend'
# www.blender.org
mtllib cereal_box_hull_1.mtl
o cereal_box_hull_1
v -0.101901 -0.041901 -0.001901
v 0.103413 0.041749 0.302281
v 0.103413 -0.041901 0.302281
v 0.103413 0.041749 -0.001901
v -0.101901 0.041749 0.302281
v -0.101901 -0.041901 0.302281
v 0.103413 -0.041901 -0.001901
v -0.101901 0.041749 -0.001901
vt 1.000000 0.000000
vt 0.000000 1.000000
vt 0.000000 0.000000
vt 1.000000 1.000000
vt 1.000000 1.000000
vt 0.000000 0.000000
vt 1.000000 0.000000
vt 0.000000 1.000000
vn 0.0000 1.0000 0.0000
vn 1.0000 0.0000 0.0000
vn 0.0000 0.0000 1.0000
vn 0.0000 -1.0000 0.0000
vn -1.0000 0.0000 0.0000
vn 0.0000 0.0000 -1.0000
usemtl None
s off
f 5/1/1 4/2/1 8/3/1
f 2/4/2 3/5/2 4/2/2
f 3/5/3 2/4/3 5/1/3
f 2/4/1 4/2/1 5/1/1
f 1/6/4 3/5/4 6/7/4
f 5/1/5 1/6/5 6/7/5
f 3/5/3 5/1/3 6/7/3
f 3/5/4 1/6/4 7/8/4
f 4/2/2 3/5/2 7/8/2
f 1/6/6 4/2/6 7/8/6
f 4/2/6 1/6/6 8/3/6
f 1/6/5 5/1/5 8/3/5
